<?xml version="1.0" standalone="no"?>
<!DOCTYPE svg PUBLIC "-//W3C//DTD SVG 20010904//EN"
 "http://www.w3.org/TR/2001/REC-SVG-20010904/DTD/svg10.dtd">
<svg version="1.0" xmlns="http://www.w3.org/2000/svg"
 width="300.000000pt" height="300.000000pt" viewBox="0 0 300.000000 300.000000"
 preserveAspectRatio="xMidYMid meet">
<metadata>
Created by potrace 1.14, written by Peter Selinger 2001-2017
</metadata>
<g transform="translate(0.000000,300.000000) scale(0.100000,-0.100000)"
fill="#000000" stroke="none">
<path d="M1350 2993 c-142 -21 -226 -38 -298 -64 -48 -16 -91 -31 -97 -33
-121 -39 -327 -163 -434 -261 -290 -263 -450 -556 -506 -924 -19 -123 -12
-370 13 -496 75 -373 282 -701 583 -921 96 -71 128 -90 239 -144 80 -39 224
-93 280 -104 14 -3 61 -12 105 -22 86 -18 354 -25 457 -12 496 64 927 373
1152 826 101 203 147 394 151 632 4 236 -29 413 -112 610 -144 337 -392 600
-720 764 -136 68 -249 105 -418 137 -58 11 -344 20 -395 12z"/>
</g>
</svg>
